# xmcd
#
# Track frame offsets: 
#        183
#        24905
#        36710
#        57143
#        68085
#        82353
#        99650
#        117060
#        134340
#        148640
#        161530
#
# Disc length: 2446 seconds
#
# Revision: 16
# Processed by: cddbd v1.5.2PL0 Copyright (c) Steve Scherf et al.
# Submitted via: ExactAudioCopyFreeDBPlugin 1.0
#
DISCID=99098c0b
DTITLE=The Notting Hillbillies - Missing...Presumed Having a Good Time
DYEAR=1990
DGENRE=Country
TTITLE0=Railroad worksong
TTITLE1=Bewildered
TTITLE2=Your own sweet way
TTITLE3=Run me down
TTITLE4=One way gal
TTITLE5=Blues stay away from me
TTITLE6=Will you miss me
TTITLE7=Please baby
TTITLE8=Weapon of prayer
TTITLE9=That's where I belong
TTITLE10=Feel like going home
EXTD=YEAR: 1990
EXTT0=
EXTT1=
EXTT2=
EXTT3=
EXTT4=
EXTT5=
EXTT6=
EXTT7=
EXTT8=
EXTT9=
EXTT10=
PLAYORDER=
